<?xml version="1.0" encoding="UTF-8" standalone="no"?>
<!DOCTYPE svg PUBLIC "-//W3C//DTD SVG 1.1//EN" "http://www.w3.org/Graphics/SVG/1.1/DTD/svg11.dtd">
<!-- Created with Vectornator (http://vectornator.io/) -->
<svg height="100%" stroke-miterlimit="10" style="fill-rule:nonzero;clip-rule:evenodd;stroke-linecap:round;stroke-linejoin:round;" version="1.1" viewBox="0 0 6772.81 6656.58" width="100%" xml:space="preserve" xmlns="http://www.w3.org/2000/svg" xmlns:vectornator="http://vectornator.io" xmlns:xlink="http://www.w3.org/1999/xlink">
<defs>
<clipPath id="TextBounds">
<rect height="1957.93" width="593.955" x="3622.84" y="511.228"/>
</clipPath>
<clipPath id="TextBounds_2">
<rect height="1957.93" width="859.005" x="-51.3703" y="5088.41"/>
</clipPath>
<clipPath id="TextBounds_3">
<rect height="1957.93" width="1143.06" x="1193.54" y="1275.75"/>
</clipPath>
<clipPath id="TextBounds_4">
<rect height="1957.93" width="954.52" x="5159.7" y="2886.03"/>
</clipPath>
</defs>
<clipPath id="ArtboardFrame">
<rect height="6656.58" width="6772.81" x="0" y="0"/>
</clipPath>
<g clip-path="url(#ArtboardFrame)" id="Layer_x0020_1" vectornator:layerName="Layer_x0020_1">
<path d="M172.935 3328.29C172.935 1519.88 1638.95 53.865 3447.36 53.865C5255.77 53.865 6721.78 1519.88 6721.78 3328.29C6721.78 5136.7 5255.77 6602.72 3447.36 6602.72C1638.95 6602.72 172.935 5136.7 172.935 3328.29Z" fill="#ffebd6" fill-rule="evenodd" opacity="1" stroke="#009933" stroke-linecap="butt" stroke-linejoin="miter" stroke-width="107.687"/>
<path clip-path="url(#TextBounds)" d="M3737.55 2050.63L3737.55 1168.57L3872.11 1168.57L3872.11 1302.29C3906.44 1239.72 3938.14 1198.47 3967.21 1178.54C3996.28 1158.6 4028.25 1148.64 4063.14 1148.64C4113.52 1148.64 4164.74 1164.7 4216.79 1196.81L4165.3 1335.52C4128.75 1313.92 4092.21 1303.12 4055.66 1303.12C4022.99 1303.12 3993.65 1312.95 3967.62 1332.61C3941.6 1352.26 3923.05 1379.54 3911.97 1414.42C3895.36 1467.58 3887.06 1525.71 3887.06 1588.84L3887.06 2050.63L3737.55 2050.63Z" fill="#000000" fill-rule="evenodd" opacity="1" stroke="none"/>
<path clip-path="url(#TextBounds_2)" d="M640.591 6304.72L787.601 6323.83C771.544 6425.15 730.431 6504.47 664.262 6561.78C598.094 6619.09 516.837 6647.75 420.491 6647.75C299.782 6647.75 202.744 6608.29 129.378 6529.39C56.0108 6450.49 19.3275 6337.39 19.3275 6190.1C19.3275 6094.87 35.1082 6011.53 66.6698 5940.1C98.2313 5868.68 146.266 5815.1 210.773 5779.39C275.28 5743.68 345.463 5725.82 421.322 5725.82C517.114 5725.82 595.464 5750.04 656.372 5798.49C717.28 5846.94 756.317 5915.74 773.482 6004.89L628.133 6027.31C614.29 5968.07 589.788 5923.49 554.628 5893.59C519.467 5863.69 476.97 5848.74 427.136 5848.74C351.831 5848.74 290.646 5875.74 243.58 5929.72C196.515 5983.71 172.982 6069.12 172.982 6185.95C172.982 6304.45 195.684 6390.55 241.089 6444.26C286.493 6497.97 345.74 6524.82 418.83 6524.82C477.523 6524.82 526.527 6506.83 565.84 6470.84C605.154 6434.84 630.071 6379.47 640.591 6304.72Z" fill="#009933" fill-rule="evenodd" opacity="1" stroke="none"/>
<path clip-path="url(#TextBounds_3)" d="M1195.3 2815.15L1662.9 1597.54L1836.49 1597.54L2334.83 2815.15L2151.28 2815.15L2009.25 2446.38L1500.11 2446.38L1366.39 2815.15L1195.3 2815.15ZM1546.63 2315.15L1959.42 2315.15L1832.34 1977.94C1793.58 1875.51 1764.79 1791.34 1745.96 1725.45C1730.46 1803.53 1708.59 1881.04 1680.35 1958.01L1546.63 2315.15Z" fill="#fc9324" fill-rule="evenodd" opacity="1" stroke="none"/>
<path d="M272.16 4054.05L6619.73 2446.61" fill="none" fill-rule="evenodd" opacity="1" stroke="#d43737" stroke-linecap="butt" stroke-linejoin="miter" stroke-width="215.375"/>
<path clip-path="url(#TextBounds_4)" d="M5848.34 4425.43L5848.34 4314.14C5792.41 4401.63 5710.19 4445.37 5601.66 4445.37C5531.34 4445.37 5466.69 4425.99 5407.72 4387.23C5348.75 4348.47 5303.07 4294.34 5270.68 4224.85C5238.29 4155.36 5222.09 4075.49 5222.09 3985.23C5222.09 3897.19 5236.77 3817.32 5266.11 3745.62C5295.46 3673.91 5339.48 3618.96 5398.17 3580.75C5456.87 3542.54 5522.48 3523.44 5595.02 3523.44C5648.17 3523.44 5695.51 3534.65 5737.04 3557.08C5778.57 3579.5 5812.35 3608.71 5838.37 3644.7L5838.37 3207.82L5987.04 3207.82L5987.04 4425.43L5848.34 4425.43ZM5375.75 3985.23C5375.75 4098.19 5399.56 4182.63 5447.18 4238.56C5494.79 4294.48 5551 4322.44 5615.78 4322.44C5681.12 4322.44 5736.63 4295.73 5782.31 4242.3C5827.99 4188.86 5850.83 4107.33 5850.83 3997.69C5850.83 3876.98 5827.58 3788.39 5781.06 3731.91C5734.55 3675.43 5677.24 3647.19 5609.14 3647.19C5542.69 3647.19 5487.18 3674.33 5442.61 3728.59C5398.03 3782.85 5375.75 3868.4 5375.75 3985.23Z" fill="#d43737" fill-rule="evenodd" opacity="1" stroke="none"/>
<path d="M3413.34 3240.4L5369.49 751.275" fill="none" fill-rule="evenodd" opacity="1" stroke="#000000" stroke-linecap="round" stroke-linejoin="round" stroke-width="215.375"/>
<path d="M3447.36 6602.72C1638.63 6602.72 172.935 5137.02 172.935 3328.29C172.935 1519.56 1638.63 53.865 3447.36 53.865C5253.26 53.865 6718.95 1519.56 6718.95 3328.29" fill="none" fill-rule="evenodd" opacity="1" stroke="#009933" stroke-linecap="butt" stroke-linejoin="miter" stroke-width="107.687"/>
</g>
</svg>
